<svg xmlns="http://www.w3.org/2000/svg" xmlns:xlink="http://www.w3.org/1999/xlink" width="256" zoomAndPan="magnify" viewBox="0 0 192 199.92" height="256" preserveAspectRatio="xMidYMid meet" version="1.0"><defs><clipPath id="28fce1eba4"><path d="M 17.5 19.191406 L 174.183594 19.191406 L 174.183594 175.878906 L 17.5 175.878906 Z M 17.5 19.191406 " clip-rule="nonzero"/></clipPath></defs><g clip-path="url(#28fce1eba4)"><path fill="#563d7c" d="M 17.5 155.675781 C 17.5 166.832031 26.542969 175.878906 37.703125 175.878906 L 153.980469 175.878906 C 165.136719 175.878906 174.183594 166.832031 174.183594 155.675781 L 174.183594 39.394531 C 174.183594 28.238281 165.136719 19.191406 153.980469 19.191406 L 37.703125 19.191406 C 26.542969 19.191406 17.496094 28.238281 17.496094 39.394531 L 17.496094 155.675781 Z M 17.5 155.675781 " fill-opacity="1" fill-rule="nonzero"/></g><path fill="#ffffff" d="M 82.472656 88.503906 L 82.472656 66.3125 L 102.003906 66.3125 C 103.867188 66.3125 105.660156 66.464844 107.386719 66.777344 C 109.109375 67.085938 110.640625 67.640625 111.96875 68.4375 C 113.296875 69.234375 114.363281 70.34375 115.160156 71.757812 C 115.953125 73.175781 116.351562 74.992188 116.351562 77.207031 C 116.351562 81.195312 115.160156 84.070312 112.765625 85.84375 C 110.378906 87.613281 107.316406 88.503906 103.597656 88.503906 Z M 61.613281 50.101562 L 61.613281 144.96875 L 107.585938 144.96875 C 111.835938 144.96875 115.976562 144.4375 120.003906 143.375 C 124.039062 142.3125 127.625 140.675781 130.773438 138.457031 C 133.917969 136.242188 136.414062 133.390625 138.277344 129.890625 C 140.136719 126.386719 141.066406 122.25 141.066406 117.464844 C 141.066406 111.535156 139.628906 106.460938 136.75 102.253906 C 133.867188 98.042969 129.511719 95.101562 123.660156 93.417969 C 127.914062 91.378906 131.125 88.765625 133.292969 85.578125 C 135.464844 82.386719 136.550781 78.402344 136.550781 73.617188 C 136.550781 69.191406 135.820312 65.46875 134.359375 62.457031 C 132.894531 59.445312 130.839844 57.03125 128.183594 55.21875 C 125.519531 53.402344 122.332031 52.09375 118.617188 51.296875 C 114.894531 50.5 110.777344 50.101562 106.257812 50.101562 Z M 82.472656 128.761719 L 82.472656 102.71875 L 105.195312 102.71875 C 109.710938 102.71875 113.339844 103.761719 116.089844 105.839844 C 118.835938 107.921875 120.207031 111.398438 120.207031 116.269531 C 120.207031 118.75 119.785156 120.789062 118.945312 122.386719 C 118.101562 123.976562 116.976562 125.238281 115.554688 126.167969 C 114.140625 127.097656 112.503906 127.765625 110.640625 128.164062 C 108.78125 128.5625 106.835938 128.761719 104.796875 128.761719 Z M 82.472656 128.761719 " fill-opacity="1" fill-rule="nonzero"/></svg>