<svg xmlns="http://www.w3.org/2000/svg" xmlns:xlink="http://www.w3.org/1999/xlink" width="256" zoomAndPan="magnify" viewBox="0 0 192 199.92" height="256" preserveAspectRatio="xMidYMid meet" version="1.0"><defs><clipPath id="adf98035f4"><path d="M 32 16.265625 L 162.25 16.265625 L 162.25 175.953125 L 32 175.953125 Z M 32 16.265625 " clip-rule="nonzero"/></clipPath></defs><g clip-path="url(#adf98035f4)"><path fill="#e9460f" d="M 66.714844 63.878906 C 59.726562 70.398438 53.3125 77.570312 47.566406 85.238281 C 35.128906 100.472656 30.25 120.566406 34.292969 139.828125 C 39.839844 158.394531 55.222656 172.339844 74.203125 175.957031 L 74.308594 175.957031 L 74.242188 175.898438 C 64.023438 171.375 57.085938 161.621094 56.179688 150.453125 C 56.777344 138.964844 62.824219 128.464844 72.433594 122.203125 C 70.855469 126.0625 71.238281 130.453125 73.425781 133.980469 C 75.921875 137.472656 80.203125 139.152344 84.410156 138.277344 C 90.390625 136.589844 93.898438 130.359375 92.214844 124.359375 C 91.617188 122.257812 90.425781 120.355469 88.792969 118.917969 C 82.027344 113.394531 78.625 104.726562 79.832031 96.054688 C 80.992188 91.464844 83.527344 87.3125 87.109375 84.179688 C 84.421875 91.363281 91.996094 98.457031 97.089844 101.945312 C 106.113281 107.371094 114.800781 113.339844 123.125 119.816406 C 132.214844 127 137.167969 138.246094 136.394531 149.757812 C 134.351562 162 125.710938 172.113281 113.941406 175.90625 C 137.496094 170.648438 161.773438 151.886719 162.238281 125.269531 C 161.773438 103.980469 149.101562 84.871094 129.730469 76.167969 L 128.867188 76.167969 C 129.296875 77.210938 129.503906 78.335938 129.464844 79.46875 C 129.449219 79.601562 129.476562 79.734375 129.464844 79.867188 C 127.992188 85.921875 121.902344 89.648438 115.847656 88.171875 C 113.4375 87.570312 111.273438 86.207031 109.722656 84.246094 C 101.957031 74.265625 109.722656 62.90625 111.023438 51.929688 C 111.816406 37.890625 105.425781 24.46875 94.078125 16.265625 C 99.753906 25.761719 92.195312 38.222656 86.691406 45.316406 C 81.171875 52.40625 73.203125 57.691406 66.714844 63.878906 Z M 66.714844 63.878906 " fill-opacity="1" fill-rule="nonzero"/></g></svg>