<svg xmlns="http://www.w3.org/2000/svg" xmlns:xlink="http://www.w3.org/1999/xlink" width="256" zoomAndPan="magnify" viewBox="0 0 192 199.92" height="256" preserveAspectRatio="xMidYMid meet" version="1.0"><defs><clipPath id="7e73542aaf"><path d="M 17.800781 17.761719 L 174.488281 17.761719 L 174.488281 174.449219 L 17.800781 174.449219 Z M 17.800781 17.761719 " clip-rule="nonzero"/></clipPath></defs><g clip-path="url(#7e73542aaf)"><path fill="#f03c2e" d="M 171.527344 89.128906 L 103.121094 20.71875 C 102.652344 20.25 102.144531 19.832031 101.59375 19.464844 C 101.039062 19.09375 100.460938 18.785156 99.847656 18.53125 C 99.234375 18.277344 98.605469 18.085938 97.953125 17.957031 C 97.304688 17.828125 96.648438 17.761719 95.988281 17.761719 C 95.324219 17.761719 94.667969 17.828125 94.019531 17.957031 C 93.367188 18.085938 92.738281 18.277344 92.125 18.53125 C 91.511719 18.785156 90.933594 19.09375 90.382812 19.464844 C 89.832031 19.832031 89.320312 20.25 88.851562 20.71875 L 74.652344 34.917969 L 92.671875 52.9375 C 96.863281 51.46875 101.660156 52.472656 105 55.8125 C 105.796875 56.609375 106.464844 57.5 107.007812 58.484375 C 107.554688 59.46875 107.953125 60.507812 108.203125 61.605469 C 108.453125 62.703125 108.550781 63.8125 108.488281 64.933594 C 108.429688 66.058594 108.214844 67.152344 107.84375 68.214844 L 125.214844 85.582031 C 129.414062 84.132812 134.261719 85.066406 137.617188 88.433594 C 138.175781 88.988281 138.671875 89.597656 139.109375 90.25 C 139.550781 90.90625 139.917969 91.601562 140.222656 92.328125 C 140.523438 93.058594 140.75 93.808594 140.90625 94.582031 C 141.058594 95.355469 141.136719 96.136719 141.136719 96.925781 C 141.136719 97.714844 141.058594 98.496094 140.90625 99.269531 C 140.753906 100.042969 140.523438 100.792969 140.222656 101.523438 C 139.921875 102.25 139.550781 102.945312 139.113281 103.597656 C 138.671875 104.253906 138.175781 104.863281 137.617188 105.417969 C 137.058594 105.976562 136.453125 106.476562 135.796875 106.914062 C 135.140625 107.351562 134.449219 107.722656 133.71875 108.023438 C 132.992188 108.324219 132.238281 108.550781 131.464844 108.707031 C 130.691406 108.859375 129.910156 108.9375 129.121094 108.9375 C 128.335938 108.933594 127.554688 108.859375 126.777344 108.703125 C 126.003906 108.550781 125.253906 108.320312 124.527344 108.019531 C 123.796875 107.71875 123.105469 107.347656 122.449219 106.90625 C 121.792969 106.46875 121.1875 105.972656 120.628906 105.414062 C 117.105469 101.886719 116.234375 96.695312 118.015625 92.355469 L 101.816406 76.15625 L 101.816406 118.78125 C 103 119.367188 104.0625 120.125 105 121.050781 C 105.558594 121.609375 106.054688 122.214844 106.492188 122.871094 C 106.933594 123.527344 107.300781 124.21875 107.605469 124.949219 C 107.90625 125.675781 108.132812 126.425781 108.285156 127.199219 C 108.441406 127.972656 108.519531 128.753906 108.519531 129.542969 C 108.519531 130.332031 108.441406 131.113281 108.285156 131.886719 C 108.132812 132.660156 107.90625 133.410156 107.605469 134.136719 C 107.300781 134.867188 106.933594 135.558594 106.492188 136.214844 C 106.054688 136.871094 105.558594 137.476562 105 138.03125 C 104.441406 138.589844 103.835938 139.089844 103.179688 139.527344 C 102.527344 139.964844 101.832031 140.335938 101.105469 140.636719 C 100.375 140.9375 99.625 141.164062 98.851562 141.320312 C 98.078125 141.472656 97.296875 141.550781 96.511719 141.550781 C 95.722656 141.550781 94.941406 141.472656 94.167969 141.320312 C 93.394531 141.164062 92.644531 140.9375 91.914062 140.636719 C 91.1875 140.335938 90.496094 139.964844 89.839844 139.527344 C 89.183594 139.089844 88.578125 138.589844 88.019531 138.03125 C 87.460938 137.476562 86.964844 136.871094 86.523438 136.214844 C 86.085938 135.558594 85.714844 134.867188 85.414062 134.136719 C 85.113281 133.410156 84.882812 132.660156 84.730469 131.886719 C 84.574219 131.113281 84.5 130.332031 84.5 129.542969 C 84.5 128.753906 84.574219 127.972656 84.730469 127.199219 C 84.882812 126.425781 85.113281 125.675781 85.414062 124.945312 C 85.714844 124.21875 86.085938 123.527344 86.523438 122.871094 C 86.964844 122.214844 87.460938 121.609375 88.019531 121.050781 C 89.179688 119.898438 90.46875 119.019531 91.953125 118.433594 L 91.953125 75.414062 C 90.523438 74.824219 89.179688 73.957031 88.019531 72.792969 C 87.175781 71.949219 86.476562 71.003906 85.914062 69.953125 C 85.351562 68.902344 84.957031 67.792969 84.726562 66.621094 C 84.496094 65.453125 84.441406 64.277344 84.5625 63.089844 C 84.683594 61.90625 84.972656 60.765625 85.433594 59.664062 L 67.660156 41.902344 L 20.753906 88.761719 C 20.28125 89.226562 19.863281 89.738281 19.496094 90.289062 C 19.128906 90.839844 18.816406 91.421875 18.5625 92.035156 C 18.308594 92.644531 18.117188 93.277344 17.988281 93.925781 C 17.859375 94.578125 17.792969 95.234375 17.792969 95.898438 C 17.792969 96.558594 17.859375 97.214844 17.988281 97.867188 C 18.117188 98.515625 18.308594 99.148438 18.5625 99.757812 C 18.816406 100.371094 19.128906 100.953125 19.496094 101.503906 C 19.863281 102.054688 20.28125 102.566406 20.753906 103.03125 L 89.164062 171.4375 C 89.632812 171.90625 90.144531 172.324219 90.695312 172.691406 C 91.246094 173.058594 91.828125 173.371094 92.4375 173.625 C 93.050781 173.878906 93.679688 174.070312 94.332031 174.199219 C 94.980469 174.328125 95.636719 174.394531 96.300781 174.394531 C 96.960938 174.394531 97.617188 174.328125 98.269531 174.199219 C 98.917969 174.070312 99.550781 173.878906 100.160156 173.625 C 100.773438 173.371094 101.355469 173.058594 101.90625 172.691406 C 102.457031 172.324219 102.964844 171.90625 103.433594 171.4375 L 171.527344 103.449219 C 172 102.980469 172.417969 102.472656 172.785156 101.921875 C 173.152344 101.371094 173.464844 100.789062 173.71875 100.175781 C 173.972656 99.5625 174.164062 98.933594 174.292969 98.28125 C 174.421875 97.632812 174.488281 96.976562 174.488281 96.3125 C 174.488281 95.648438 174.421875 94.992188 174.292969 94.34375 C 174.164062 93.695312 173.972656 93.0625 173.71875 92.449219 C 173.464844 91.835938 173.152344 91.257812 172.785156 90.707031 C 172.417969 90.152344 172 89.644531 171.527344 89.175781 " fill-opacity="1" fill-rule="nonzero"/></g></svg>