<svg xmlns="http://www.w3.org/2000/svg" xmlns:xlink="http://www.w3.org/1999/xlink" width="256" zoomAndPan="magnify" viewBox="0 0 192 199.92" height="256" preserveAspectRatio="xMidYMid meet" version="1.0"><defs><clipPath id="dd009ae7ae"><path d="M 16.863281 16.824219 L 175.050781 16.824219 L 175.050781 175.011719 L 16.863281 175.011719 Z M 16.863281 16.824219 " clip-rule="nonzero"/></clipPath></defs><g clip-path="url(#dd009ae7ae)"><path fill="#4e8ef7" d="M 161.859375 41.125 C 161.859375 43.90625 160.828125 46.441406 159.140625 48.390625 C 169.125 61.632812 175.050781 78.09375 175.050781 95.917969 C 175.050781 139.53125 139.570312 175.011719 95.957031 175.011719 C 52.34375 175.011719 16.863281 139.53125 16.863281 95.917969 C 16.863281 52.308594 52.34375 16.824219 95.957031 16.824219 C 113.777344 16.824219 130.246094 22.753906 143.488281 32.742188 C 145.433594 31.050781 147.96875 30.019531 150.753906 30.019531 C 156.882812 30.019531 161.859375 34.988281 161.859375 41.125 Z M 95.957031 172.351562 C 138.105469 172.351562 172.386719 138.0625 172.386719 95.921875 C 172.386719 78.777344 166.722656 62.945312 157.15625 50.183594 C 155.34375 51.464844 153.140625 52.226562 150.753906 52.226562 C 144.617188 52.226562 139.648438 47.257812 139.648438 41.125 C 139.648438 38.734375 140.410156 36.527344 141.6875 34.71875 C 128.929688 25.15625 113.09375 19.488281 95.957031 19.488281 C 53.8125 19.488281 19.519531 53.773438 19.519531 95.921875 C 19.523438 138.066406 53.8125 172.351562 95.957031 172.351562 Z M 95.957031 128.210938 C 78.125 128.210938 63.664062 113.753906 63.664062 95.921875 C 63.664062 78.085938 78.125 63.625 95.957031 63.625 C 113.789062 63.625 128.25 78.085938 128.25 95.921875 C 128.25 113.753906 113.789062 128.210938 95.957031 128.210938 Z M 95.957031 128.210938 " fill-opacity="1" fill-rule="nonzero"/></g></svg>