<svg xmlns="http://www.w3.org/2000/svg" xmlns:xlink="http://www.w3.org/1999/xlink" width="256" zoomAndPan="magnify" viewBox="0 0 192 199.92" height="256" preserveAspectRatio="xMidYMid meet" version="1.0"><defs><clipPath id="9dfcabb2f3"><path d="M 23.445312 21.355469 L 83 21.355469 L 83 58 L 23.445312 58 Z M 23.445312 21.355469 " clip-rule="nonzero"/></clipPath><clipPath id="e8eb31ac65"><path d="M 23.445312 37 L 84 37 L 84 170.546875 L 23.445312 170.546875 Z M 23.445312 37 " clip-rule="nonzero"/></clipPath><clipPath id="a279c30c29"><path d="M 79 102 L 141 102 L 141 170.546875 L 79 170.546875 Z M 79 102 " clip-rule="nonzero"/></clipPath><clipPath id="6b9b678d19"><path d="M 136 54 L 168.890625 54 L 168.890625 107 L 136 107 Z M 136 54 " clip-rule="nonzero"/></clipPath><clipPath id="d62343f5fa"><path d="M 107 38 L 168.890625 38 L 168.890625 75 L 107 75 Z M 107 38 " clip-rule="nonzero"/></clipPath></defs><g clip-path="url(#9dfcabb2f3)"><path fill="#ef0a1b" d="M 53.632812 57.984375 C 53.277344 57.984375 52.945312 57.894531 52.636719 57.71875 L 52.441406 57.605469 L 24.480469 41.433594 C 24.332031 41.347656 24.195312 41.242188 24.074219 41.121094 C 23.949219 41 23.847656 40.863281 23.757812 40.714844 C 23.671875 40.566406 23.605469 40.40625 23.5625 40.242188 C 23.515625 40.074219 23.492188 39.90625 23.492188 39.734375 C 23.488281 39.558594 23.511719 39.390625 23.554688 39.222656 C 23.597656 39.058594 23.660156 38.898438 23.746094 38.746094 C 23.832031 38.597656 23.933594 38.460938 24.054688 38.335938 C 24.175781 38.214844 24.308594 38.105469 24.457031 38.019531 L 51.757812 21.734375 C 52.074219 21.546875 52.414062 21.453125 52.78125 21.453125 C 53.144531 21.453125 53.488281 21.546875 53.800781 21.734375 L 81.621094 38.371094 C 81.769531 38.460938 81.902344 38.566406 82.023438 38.691406 C 82.144531 38.8125 82.246094 38.949219 82.332031 39.097656 C 82.414062 39.246094 82.480469 39.40625 82.523438 39.570312 C 82.566406 39.738281 82.589844 39.90625 82.585938 40.078125 C 82.585938 40.25 82.566406 40.417969 82.519531 40.585938 C 82.476562 40.75 82.410156 40.90625 82.324219 41.058594 C 82.242188 41.207031 82.136719 41.34375 82.015625 41.464844 C 81.894531 41.585938 81.761719 41.691406 81.613281 41.777344 L 54.644531 57.707031 C 54.332031 57.890625 53.996094 57.984375 53.632812 57.984375 Z M 29.394531 39.691406 L 53.621094 53.703125 L 76.71875 40.0625 L 52.777344 25.746094 Z M 29.394531 39.691406 " fill-opacity="1" fill-rule="nonzero"/></g><g clip-path="url(#e8eb31ac65)"><path fill="#ef0a1b" d="M 81.394531 170.546875 C 81.054688 170.546875 80.730469 170.464844 80.429688 170.296875 L 24.511719 139.332031 C 24.199219 139.15625 23.949219 138.914062 23.765625 138.601562 C 23.582031 138.292969 23.492188 137.957031 23.492188 137.597656 L 23.492188 39.71875 C 23.492188 39.363281 23.578125 39.035156 23.757812 38.726562 C 23.933594 38.421875 24.179688 38.179688 24.484375 38 C 24.792969 37.824219 25.125 37.738281 25.480469 37.738281 C 25.835938 37.738281 26.167969 37.828125 26.472656 38.003906 L 54.433594 54.175781 C 54.738281 54.351562 54.980469 54.59375 55.160156 54.898438 C 55.335938 55.207031 55.425781 55.535156 55.425781 55.890625 L 55.425781 120.019531 L 82.394531 135.691406 C 82.703125 135.871094 82.941406 136.113281 83.117188 136.417969 C 83.296875 136.722656 83.382812 137.054688 83.382812 137.40625 L 83.382812 168.566406 C 83.382812 168.828125 83.332031 169.082031 83.230469 169.324219 C 83.132812 169.566406 82.988281 169.78125 82.800781 169.964844 C 82.613281 170.152344 82.398438 170.296875 82.15625 170.394531 C 81.914062 170.496094 81.660156 170.546875 81.394531 170.546875 Z M 27.464844 136.429688 L 79.410156 165.195312 L 79.410156 138.546875 L 52.4375 122.871094 C 52.132812 122.691406 51.890625 122.453125 51.714844 122.144531 C 51.539062 121.839844 51.449219 121.511719 51.449219 121.15625 L 51.449219 57.03125 L 27.464844 43.160156 Z M 27.464844 136.429688 " fill-opacity="1" fill-rule="nonzero"/></g><path fill="#ef0a1b" d="M 53.4375 123.140625 C 53.171875 123.140625 52.917969 123.089844 52.675781 122.988281 C 52.433594 122.890625 52.21875 122.746094 52.03125 122.558594 C 51.84375 122.375 51.703125 122.160156 51.601562 121.917969 C 51.5 121.671875 51.449219 121.421875 51.449219 121.15625 L 51.449219 55.890625 C 51.449219 55.640625 51.496094 55.402344 51.585938 55.167969 C 51.675781 54.9375 51.804688 54.730469 51.972656 54.546875 C 52.140625 54.367188 52.335938 54.21875 52.5625 54.109375 C 52.785156 54 53.019531 53.933594 53.265625 53.914062 L 79.589844 38.367188 C 79.738281 38.277344 79.898438 38.210938 80.066406 38.164062 C 80.234375 38.117188 80.40625 38.09375 80.578125 38.089844 C 80.753906 38.089844 80.925781 38.109375 81.09375 38.152344 C 81.261719 38.195312 81.421875 38.257812 81.574219 38.34375 C 81.726562 38.429688 81.863281 38.535156 81.988281 38.65625 C 82.113281 38.777344 82.222656 38.910156 82.308594 39.0625 C 82.398438 39.210938 82.46875 39.371094 82.515625 39.535156 C 82.5625 39.703125 82.585938 39.875 82.589844 40.046875 L 83.382812 104.503906 C 83.386719 104.855469 83.304688 105.1875 83.128906 105.496094 C 82.957031 105.804688 82.71875 106.050781 82.414062 106.230469 L 54.453125 122.859375 C 54.140625 123.046875 53.800781 123.140625 53.4375 123.140625 Z M 55.425781 57.246094 L 55.425781 117.667969 L 79.394531 103.410156 L 78.65625 43.523438 Z M 55.425781 57.246094 " fill-opacity="1" fill-rule="nonzero"/><g clip-path="url(#a279c30c29)"><path fill="#ef0a1b" d="M 81.394531 170.546875 C 81.132812 170.546875 80.878906 170.496094 80.636719 170.394531 C 80.390625 170.296875 80.175781 170.152344 79.992188 169.964844 C 79.804688 169.78125 79.660156 169.566406 79.558594 169.324219 C 79.460938 169.082031 79.410156 168.828125 79.410156 168.566406 L 79.410156 137.40625 C 79.410156 137.050781 79.5 136.71875 79.675781 136.410156 C 79.855469 136.105469 80.101562 135.863281 80.410156 135.6875 L 137.320312 103.1875 C 137.472656 103.101562 137.628906 103.039062 137.800781 102.992188 C 137.96875 102.949219 138.136719 102.925781 138.3125 102.925781 C 138.488281 102.929688 138.65625 102.949219 138.824219 102.996094 C 138.992188 103.042969 139.152344 103.109375 139.304688 103.195312 C 139.453125 103.28125 139.589844 103.386719 139.714844 103.511719 C 139.835938 103.632812 139.941406 103.769531 140.027344 103.921875 C 140.117188 104.070312 140.179688 104.230469 140.226562 104.398438 C 140.273438 104.566406 140.292969 104.734375 140.292969 104.910156 L 140.292969 137.40625 C 140.292969 137.769531 140.203125 138.105469 140.015625 138.417969 C 139.832031 138.726562 139.582031 138.96875 139.261719 139.144531 L 82.351562 170.304688 C 82.054688 170.464844 81.734375 170.546875 81.394531 170.546875 Z M 83.382812 138.554688 L 83.382812 165.214844 L 136.320312 136.234375 L 136.320312 108.328125 Z M 83.382812 138.554688 " fill-opacity="1" fill-rule="nonzero"/></g><path fill="#ef0a1b" d="M 81.394531 139.390625 C 81.039062 139.390625 80.703125 139.300781 80.394531 139.121094 L 52.4375 122.871094 C 52.289062 122.785156 52.152344 122.679688 52.03125 122.558594 C 51.90625 122.433594 51.804688 122.300781 51.714844 122.148438 C 51.628906 122 51.5625 121.84375 51.519531 121.675781 C 51.472656 121.511719 51.449219 121.339844 51.449219 121.167969 C 51.449219 120.996094 51.46875 120.824219 51.515625 120.660156 C 51.558594 120.492188 51.621094 120.332031 51.707031 120.183594 C 51.792969 120.03125 51.894531 119.894531 52.015625 119.773438 C 52.136719 119.648438 52.269531 119.542969 52.417969 119.457031 L 80.378906 102.824219 C 80.398438 102.8125 80.421875 102.800781 80.441406 102.789062 L 108.800781 87.304688 C 109.101562 87.140625 109.421875 87.058594 109.761719 87.0625 C 110.105469 87.0625 110.425781 87.148438 110.722656 87.3125 L 139.273438 103.179688 C 139.585938 103.351562 139.835938 103.59375 140.015625 103.898438 C 140.199219 104.207031 140.292969 104.539062 140.292969 104.898438 C 140.296875 105.253906 140.207031 105.589844 140.027344 105.898438 C 139.851562 106.207031 139.605469 106.453125 139.292969 106.628906 L 82.382812 139.125 C 82.078125 139.300781 81.75 139.386719 81.394531 139.386719 Z M 57.351562 121.136719 L 81.40625 135.117188 L 134.265625 104.933594 L 109.746094 91.308594 L 82.382812 106.25 Z M 57.351562 121.136719 " fill-opacity="1" fill-rule="nonzero"/><path fill="#ef0a1b" d="M 138.308594 106.890625 C 137.960938 106.890625 137.640625 106.808594 137.339844 106.640625 L 108.789062 90.777344 C 108.472656 90.601562 108.222656 90.355469 108.039062 90.046875 C 107.859375 89.734375 107.765625 89.398438 107.769531 89.039062 L 107.863281 55.996094 C 107.863281 55.824219 107.886719 55.652344 107.933594 55.484375 C 107.980469 55.316406 108.042969 55.160156 108.132812 55.007812 C 108.21875 54.859375 108.324219 54.722656 108.445312 54.601562 C 108.570312 54.476562 108.707031 54.375 108.855469 54.285156 C 109.007812 54.199219 109.167969 54.132812 109.335938 54.089844 C 109.5 54.042969 109.671875 54.019531 109.847656 54.019531 C 110.019531 54.019531 110.191406 54.042969 110.359375 54.085938 C 110.527344 54.128906 110.6875 54.195312 110.835938 54.28125 L 139.292969 70.5 C 139.601562 70.679688 139.847656 70.921875 140.027344 71.226562 C 140.203125 71.535156 140.292969 71.867188 140.292969 72.222656 L 140.292969 104.910156 C 140.292969 105.171875 140.242188 105.425781 140.144531 105.667969 C 140.042969 105.910156 139.898438 106.125 139.710938 106.3125 C 139.527344 106.496094 139.3125 106.640625 139.066406 106.742188 C 138.824219 106.84375 138.570312 106.890625 138.308594 106.890625 Z M 111.746094 87.882812 L 136.320312 101.535156 L 136.320312 73.375 L 111.828125 59.414062 Z M 111.746094 87.882812 " fill-opacity="1" fill-rule="nonzero"/><g clip-path="url(#6b9b678d19)"><path fill="#ef0a1b" d="M 138.308594 106.890625 C 138.042969 106.890625 137.789062 106.839844 137.546875 106.742188 C 137.304688 106.640625 137.089844 106.496094 136.902344 106.3125 C 136.714844 106.125 136.570312 105.910156 136.472656 105.667969 C 136.371094 105.425781 136.320312 105.171875 136.320312 104.910156 L 136.320312 72.222656 C 136.320312 71.867188 136.410156 71.535156 136.589844 71.226562 C 136.769531 70.917969 137.011719 70.675781 137.324219 70.5 L 165.875 54.28125 C 166.027344 54.195312 166.183594 54.128906 166.355469 54.085938 C 166.523438 54.042969 166.691406 54.019531 166.867188 54.019531 C 167.039062 54.019531 167.210938 54.042969 167.378906 54.089844 C 167.546875 54.136719 167.707031 54.203125 167.855469 54.289062 C 168.007812 54.375 168.144531 54.480469 168.265625 54.605469 C 168.390625 54.726562 168.492188 54.863281 168.582031 55.015625 C 168.667969 55.164062 168.734375 55.324219 168.777344 55.492188 C 168.824219 55.660156 168.84375 55.828125 168.84375 56.003906 L 168.84375 89.042969 C 168.84375 89.402344 168.753906 89.738281 168.570312 90.046875 C 168.390625 90.359375 168.140625 90.601562 167.824219 90.777344 L 139.273438 106.640625 C 138.972656 106.808594 138.652344 106.890625 138.308594 106.890625 Z M 140.292969 73.375 L 140.292969 101.535156 L 164.871094 87.878906 L 164.871094 59.414062 Z M 140.292969 73.375 " fill-opacity="1" fill-rule="nonzero"/></g><g clip-path="url(#d62343f5fa)"><path fill="#ef0a1b" d="M 138.308594 74.207031 C 137.953125 74.207031 137.625 74.117188 137.320312 73.945312 L 108.867188 57.722656 C 108.554688 57.546875 108.308594 57.304688 108.132812 56.992188 C 107.953125 56.683594 107.863281 56.351562 107.863281 55.996094 C 107.867188 55.636719 107.957031 55.304688 108.140625 54.996094 C 108.320312 54.6875 108.566406 54.449219 108.878906 54.273438 L 137.335938 38.34375 C 137.636719 38.175781 137.960938 38.089844 138.304688 38.089844 C 138.652344 38.089844 138.976562 38.175781 139.277344 38.34375 L 167.828125 54.273438 C 168.140625 54.445312 168.386719 54.6875 168.570312 54.996094 C 168.753906 55.304688 168.84375 55.636719 168.84375 55.996094 C 168.847656 56.351562 168.757812 56.6875 168.578125 56.996094 C 168.398438 57.304688 168.152344 57.546875 167.839844 57.726562 L 139.289062 73.945312 C 138.984375 74.117188 138.65625 74.207031 138.308594 74.207031 Z M 113.882812 56.019531 L 138.308594 69.941406 L 162.816406 56.019531 L 138.308594 42.34375 Z M 113.882812 56.019531 " fill-opacity="1" fill-rule="nonzero"/></g></svg>