<svg xmlns="http://www.w3.org/2000/svg" xmlns:xlink="http://www.w3.org/1999/xlink" width="256" zoomAndPan="magnify" viewBox="0 0 192 199.92" height="256" preserveAspectRatio="xMidYMid meet" version="1.0"><defs><clipPath id="6c6a4be080"><path d="M 19 23 L 174.75 23 L 174.75 174.710938 L 19 174.710938 Z M 19 23 " clip-rule="nonzero"/></clipPath></defs><g clip-path="url(#6c6a4be080)"><path fill="#00678c" d="M 162.53125 140.140625 C 154.101562 139.90625 147.558594 140.769531 142.078125 143.074219 C 140.5 143.710938 137.964844 143.710938 137.757812 145.695312 C 138.601562 146.53125 138.703125 147.894531 139.445312 149.050781 C 140.707031 151.144531 142.925781 153.972656 144.925781 155.4375 L 151.671875 160.257812 C 155.785156 162.769531 160.421875 164.238281 164.425781 166.753906 C 166.746094 168.21875 169.066406 170.105469 171.386719 171.679688 C 172.566406 172.519531 173.285156 173.882812 174.761719 174.402344 L 174.761719 174.085938 C 174.023438 173.148438 173.808594 171.785156 173.074219 170.734375 L 169.910156 167.695312 C 166.855469 163.609375 163.054688 160.046875 158.945312 157.117188 C 155.570312 154.808594 148.195312 151.667969 146.824219 147.792969 L 146.613281 147.558594 C 148.929688 147.324219 151.671875 146.507812 153.886719 145.878906 C 157.476562 144.941406 160.742188 145.144531 164.425781 144.203125 L 169.492188 142.738281 L 169.492188 141.796875 C 167.59375 139.910156 166.222656 137.398438 164.222656 135.617188 C 158.847656 131.007812 152.9375 126.5 146.824219 122.730469 C 143.554688 120.632812 139.335938 119.269531 135.859375 117.492188 C 134.589844 116.863281 132.484375 116.546875 131.746094 115.5 C 129.84375 113.199219 128.792969 110.160156 127.421875 107.433594 L 118.78125 89.203125 C 116.882812 85.117188 115.71875 81.03125 113.402344 77.257812 C 102.542969 59.449219 90.734375 48.65625 72.601562 38.074219 C 68.703125 35.875 64.0625 34.925781 59.132812 33.777344 L 51.226562 33.351562 C 49.535156 32.621094 47.851562 30.628906 46.375 29.683594 C 40.367188 25.914062 24.867188 17.742188 20.4375 28.511719 C 17.589844 35.320312 24.652344 42.027344 27.050781 45.484375 C 28.847656 47.894531 31.164062 50.617188 32.433594 53.34375 C 33.140625 55.121094 33.378906 57.011719 34.117188 58.894531 C 35.800781 63.503906 37.386719 68.640625 39.601562 72.9375 C 40.78125 75.140625 42.023438 77.449219 43.5 79.4375 C 44.34375 80.609375 45.820312 81.113281 46.132812 83 C 44.65625 85.09375 44.554688 88.234375 43.710938 90.859375 C 39.914062 102.699219 41.390625 117.367188 46.765625 126.082031 C 48.457031 128.699219 52.4375 134.464844 57.839844 132.261719 C 62.585938 130.378906 61.527344 124.40625 62.894531 119.167969 C 63.214844 117.910156 63.003906 117.074219 63.632812 116.230469 L 63.632812 116.464844 L 67.957031 125.164062 C 71.226562 130.296875 76.921875 135.640625 81.664062 139.203125 C 84.191406 141.089844 86.195312 144.339844 89.355469 145.492188 L 89.355469 145.175781 L 89.148438 145.175781 C 88.515625 144.234375 87.566406 143.8125 86.722656 143.078125 C 84.824219 141.195312 82.714844 138.886719 81.238281 136.792969 C 76.8125 130.925781 72.914062 124.429688 69.433594 117.726562 C 67.746094 114.476562 66.269531 110.914062 64.902344 107.667969 C 64.265625 106.410156 64.265625 104.519531 63.210938 103.894531 C 61.628906 106.199219 59.3125 108.195312 58.148438 111.019531 C 56.144531 115.523438 55.9375 121.078125 55.199219 126.839844 C 54.773438 126.945312 54.964844 126.839844 54.773438 127.074219 C 51.40625 126.238281 50.242188 122.777344 48.976562 119.847656 C 45.816406 112.410156 45.289062 100.464844 48.027344 91.871094 C 48.765625 89.671875 51.933594 82.757812 50.667969 80.660156 C 50.03125 78.671875 47.925781 77.519531 46.765625 75.945312 C 45.394531 73.957031 43.921875 71.441406 42.972656 69.242188 C 40.441406 63.371094 39.179688 56.878906 36.4375 51.011719 C 35.167969 48.285156 32.957031 45.457031 31.160156 42.945312 C 29.15625 40.113281 26.949219 38.121094 25.367188 34.773438 C 24.839844 33.597656 24.101562 31.734375 24.945312 30.472656 C 25.152344 29.636719 25.578125 29.300781 26.417969 29.113281 C 27.789062 27.9375 31.691406 29.425781 33.0625 30.050781 C 36.960938 31.625 40.226562 33.089844 43.496094 35.289062 C 44.972656 36.335938 46.554688 38.328125 48.453125 38.851562 L 50.671875 38.851562 C 54.042969 39.585938 57.835938 39.085938 60.996094 40.027344 C 66.585938 41.8125 71.644531 44.429688 76.179688 47.261719 C 89.988281 55.957031 101.378906 68.320312 109.074219 83.09375 C 110.335938 85.503906 110.863281 87.703125 112.027344 90.21875 C 114.242188 95.355469 116.984375 100.59375 119.191406 105.625 C 121.410156 110.546875 123.515625 115.582031 126.679688 119.667969 C 128.261719 121.867188 134.585938 123.019531 137.429688 124.171875 C 139.539062 125.109375 142.804688 125.957031 144.707031 127.105469 C 148.289062 129.308594 151.875 131.820312 155.246094 134.230469 C 156.933594 135.484375 162.207031 138.105469 162.519531 140.195312 Z M 55.019531 49.089844 C 53.554688 49.078125 52.113281 49.253906 50.699219 49.617188 L 50.699219 49.851562 L 50.90625 49.851562 C 51.75 51.527344 53.226562 52.679688 54.28125 54.148438 L 56.707031 59.175781 L 56.914062 58.941406 C 58.390625 57.894531 59.132812 56.21875 59.132812 53.707031 C 58.5 52.972656 58.394531 52.238281 57.867188 51.503906 C 57.234375 50.457031 55.863281 49.933594 55.019531 49.097656 Z M 55.019531 49.089844 " fill-opacity="1" fill-rule="evenodd"/></g></svg>