<svg xmlns="http://www.w3.org/2000/svg" xmlns:xlink="http://www.w3.org/1999/xlink" width="256" zoomAndPan="magnify" viewBox="0 0 192 191.999996" height="256" preserveAspectRatio="xMidYMid meet" version="1.0"><defs><clipPath id="ba46bd0f45"><path d="M 17.445312 17.445312 L 174.195312 17.445312 L 174.195312 174.195312 L 17.445312 174.195312 Z M 17.445312 17.445312 " clip-rule="nonzero"/></clipPath></defs><path fill="#21759b" d="M 28.585938 95.816406 C 28.585938 122.429688 44.050781 145.429688 66.480469 156.328125 L 34.40625 68.453125 C 30.675781 76.816406 28.585938 86.070312 28.585938 95.816406 Z M 28.585938 95.816406 " fill-opacity="1" fill-rule="nonzero"/><path fill="#21759b" d="M 141.210938 92.421875 C 141.210938 84.113281 138.226562 78.359375 135.664062 73.878906 C 132.257812 68.34375 129.0625 63.652344 129.0625 58.113281 C 129.0625 51.933594 133.75 46.179688 140.351562 46.179688 C 140.652344 46.179688 140.933594 46.21875 141.222656 46.234375 C 129.261719 35.273438 113.324219 28.585938 95.820312 28.585938 C 72.332031 28.585938 51.667969 40.636719 39.644531 58.890625 C 41.222656 58.9375 42.707031 58.96875 43.972656 58.96875 C 51.003906 58.96875 61.890625 58.117188 61.890625 58.117188 C 65.515625 57.902344 65.941406 63.226562 62.320312 63.65625 C 62.320312 63.65625 58.679688 64.082031 54.625 64.296875 L 79.109375 137.121094 L 93.824219 92.996094 L 83.347656 64.292969 C 79.726562 64.082031 76.296875 63.652344 76.296875 63.652344 C 72.675781 63.441406 73.101562 57.902344 76.722656 58.113281 C 76.722656 58.113281 87.828125 58.96875 94.433594 58.96875 C 101.464844 58.96875 112.351562 58.113281 112.351562 58.113281 C 115.976562 57.902344 116.40625 63.222656 112.78125 63.652344 C 112.78125 63.652344 109.132812 64.082031 105.085938 64.292969 L 129.386719 136.570312 L 136.089844 114.160156 C 138.996094 104.859375 141.210938 98.179688 141.210938 92.421875 Z M 141.210938 92.421875 " fill-opacity="1" fill-rule="nonzero"/><path fill="#21759b" d="M 97 101.699219 L 76.828125 160.316406 C 82.851562 162.085938 89.222656 163.054688 95.820312 163.054688 C 103.652344 163.054688 111.160156 161.703125 118.148438 159.246094 C 117.96875 158.957031 117.804688 158.652344 117.667969 158.316406 Z M 97 101.699219 " fill-opacity="1" fill-rule="nonzero"/><path fill="#21759b" d="M 154.816406 63.558594 C 155.105469 65.699219 155.269531 68 155.269531 70.472656 C 155.269531 77.296875 153.996094 84.964844 150.15625 94.554688 L 129.621094 153.933594 C 149.609375 142.277344 163.054688 120.621094 163.054688 95.816406 C 163.054688 84.128906 160.070312 73.136719 154.816406 63.558594 Z M 154.816406 63.558594 " fill-opacity="1" fill-rule="nonzero"/><g clip-path="url(#ba46bd0f45)"><path fill="#21759b" d="M 95.820312 17.445312 C 52.605469 17.445312 17.445312 52.601562 17.445312 95.816406 C 17.445312 139.035156 52.605469 174.195312 95.820312 174.195312 C 139.035156 174.195312 174.199219 139.035156 174.199219 95.816406 C 174.199219 52.601562 139.035156 17.445312 95.820312 17.445312 Z M 95.820312 170.601562 C 54.585938 170.601562 21.039062 137.050781 21.039062 95.816406 C 21.039062 54.582031 54.585938 21.039062 95.820312 21.039062 C 137.054688 21.039062 170.597656 54.582031 170.597656 95.816406 C 170.597656 137.050781 137.054688 170.601562 95.820312 170.601562 Z M 95.820312 170.601562 " fill-opacity="1" fill-rule="nonzero"/></g></svg>