<svg xmlns="http://www.w3.org/2000/svg" xmlns:xlink="http://www.w3.org/1999/xlink" width="256" zoomAndPan="magnify" viewBox="0 0 192 199.92" height="256" preserveAspectRatio="xMidYMid meet" version="1.0"><defs><clipPath id="3e88a95bc2"><path d="M 19.230469 10 L 175.167969 10 L 175.167969 187 L 19.230469 187 Z M 19.230469 10 " clip-rule="nonzero"/></clipPath></defs><g clip-path="url(#3e88a95bc2)"><path fill="#e44d26" d="M 33.386719 169.320312 L 19.1875 10.289062 L 175.210938 10.289062 L 161 169.296875 L 97.101562 186.980469 Z M 33.386719 169.320312 " fill-opacity="1" fill-rule="nonzero"/></g><path fill="#f16529" d="M 148.832031 159.171875 L 160.980469 23.292969 L 97.199219 23.292969 L 97.199219 173.46875 Z M 148.832031 159.171875 " fill-opacity="1" fill-rule="nonzero"/><path fill="#ebebeb" d="M 97.132812 42.796875 L 48.21875 42.796875 L 53.488281 101.777344 L 97.199219 101.777344 L 97.199219 82.277344 L 71.355469 82.277344 L 69.566406 62.304688 L 97.199219 62.304688 L 97.199219 42.796875 Z M 97.199219 132.867188 L 97.117188 132.886719 L 75.363281 127.023438 L 73.980469 111.46875 L 54.359375 111.46875 L 57.097656 142.09375 L 97.109375 153.136719 L 97.199219 153.109375 Z M 97.199219 132.867188 " fill-opacity="1" fill-rule="nonzero"/><path fill="#ffffff" d="M 97.132812 101.777344 L 121.1875 101.777344 L 118.976562 127.066406 L 97.1875 132.9375 L 97.1875 153.230469 L 137.234375 142.148438 L 142.597656 82.265625 L 97.199219 82.265625 Z M 145.59375 48.03125 L 146.058594 42.796875 L 97.121094 42.796875 L 97.121094 62.296875 L 144.300781 62.296875 L 144.6875 57.914062 Z M 145.59375 48.03125 " fill-opacity="1" fill-rule="nonzero"/></svg>