<svg xmlns="http://www.w3.org/2000/svg" xmlns:xlink="http://www.w3.org/1999/xlink" width="256" zoomAndPan="magnify" viewBox="0 0 192 199.92" height="256" preserveAspectRatio="xMidYMid meet" version="1.0"><defs><clipPath id="974838b338"><path d="M 16.398438 54.71875 L 175.617188 54.71875 L 175.617188 137.183594 L 16.398438 137.183594 Z M 16.398438 54.71875 " clip-rule="nonzero"/></clipPath><clipPath id="1bc231db96"><path d="M 16.546875 96.011719 C 16.546875 118.785156 52.125 137.25 96.007812 137.25 C 139.890625 137.25 175.46875 118.785156 175.46875 96.011719 C 175.46875 73.234375 139.890625 54.773438 96.007812 54.773438 C 52.125 54.773438 16.546875 73.234375 16.546875 96.011719 " clip-rule="nonzero"/></clipPath><clipPath id="6c246ac982"><path d="M 16.546875 96.011719 C 16.546875 118.785156 52.125 137.25 96.007812 137.25 C 139.890625 137.25 175.46875 118.785156 175.46875 96.011719 C 175.46875 73.234375 139.890625 54.773438 96.007812 54.773438 C 52.125 54.773438 16.546875 73.234375 16.546875 96.011719 " clip-rule="nonzero"/></clipPath><radialGradient gradientTransform="matrix(1.006758, 0, 0, 0.993242, 64.256614, 69.269509)" gradientUnits="userSpaceOnUse" r="103.643699" cx="0" id="e3ebd04ae6" cy="0" fx="0" fy="0"><stop stop-opacity="1" stop-color="rgb(68.238831%, 69.799805%, 83.529663%)" offset="0"/><stop stop-opacity="1" stop-color="rgb(68.238831%, 69.799805%, 83.529663%)" offset="0.25"/><stop stop-opacity="1" stop-color="rgb(68.203735%, 69.764709%, 83.503723%)" offset="0.296875"/><stop stop-opacity="1" stop-color="rgb(67.996216%, 69.555664%, 83.348083%)" offset="0.300781"/><stop stop-opacity="1" stop-color="rgb(67.648315%, 69.20929%, 83.088684%)" offset="0.304688"/><stop stop-opacity="1" stop-color="rgb(67.301941%, 68.861389%, 82.830811%)" offset="0.308594"/><stop stop-opacity="1" stop-color="rgb(66.954041%, 68.513489%, 82.571411%)" offset="0.3125"/><stop stop-opacity="1" stop-color="rgb(66.607666%, 68.167114%, 82.313538%)" offset="0.316406"/><stop stop-opacity="1" stop-color="rgb(66.259766%, 67.819214%, 82.054138%)" offset="0.320312"/><stop stop-opacity="1" stop-color="rgb(65.911865%, 67.472839%, 81.796265%)" offset="0.324219"/><stop stop-opacity="1" stop-color="rgb(65.565491%, 67.124939%, 81.536865%)" offset="0.328125"/><stop stop-opacity="1" stop-color="rgb(65.21759%, 66.778564%, 81.278992%)" offset="0.332031"/><stop stop-opacity="1" stop-color="rgb(64.871216%, 66.430664%, 81.019592%)" offset="0.335938"/><stop stop-opacity="1" stop-color="rgb(64.523315%, 66.08429%, 80.761719%)" offset="0.339844"/><stop stop-opacity="1" stop-color="rgb(64.176941%, 65.736389%, 80.502319%)" offset="0.34375"/><stop stop-opacity="1" stop-color="rgb(63.829041%, 65.388489%, 80.24292%)" offset="0.347656"/><stop stop-opacity="1" stop-color="rgb(63.482666%, 65.042114%, 79.985046%)" offset="0.351562"/><stop stop-opacity="1" stop-color="rgb(63.134766%, 64.694214%, 79.725647%)" offset="0.355469"/><stop stop-opacity="1" stop-color="rgb(62.786865%, 64.347839%, 79.467773%)" offset="0.359375"/><stop stop-opacity="1" stop-color="rgb(62.440491%, 63.999939%, 79.208374%)" offset="0.363281"/><stop stop-opacity="1" stop-color="rgb(62.09259%, 63.653564%, 78.9505%)" offset="0.367188"/><stop stop-opacity="1" stop-color="rgb(61.746216%, 63.305664%, 78.691101%)" offset="0.371094"/><stop stop-opacity="1" stop-color="rgb(61.398315%, 62.95929%, 78.433228%)" offset="0.375"/><stop stop-opacity="1" stop-color="rgb(61.051941%, 62.611389%, 78.173828%)" offset="0.378906"/><stop stop-opacity="1" stop-color="rgb(60.704041%, 62.263489%, 77.915955%)" offset="0.382812"/><stop stop-opacity="1" stop-color="rgb(60.357666%, 61.917114%, 77.656555%)" offset="0.386719"/><stop stop-opacity="1" stop-color="rgb(60.009766%, 61.569214%, 77.398682%)" offset="0.390625"/><stop stop-opacity="1" stop-color="rgb(59.661865%, 61.222839%, 77.139282%)" offset="0.394531"/><stop stop-opacity="1" stop-color="rgb(59.315491%, 60.874939%, 76.881409%)" offset="0.398438"/><stop stop-opacity="1" stop-color="rgb(58.96759%, 60.528564%, 76.622009%)" offset="0.402344"/><stop stop-opacity="1" stop-color="rgb(58.621216%, 60.180664%, 76.364136%)" offset="0.40625"/><stop stop-opacity="1" stop-color="rgb(58.273315%, 59.83429%, 76.104736%)" offset="0.410156"/><stop stop-opacity="1" stop-color="rgb(57.926941%, 59.486389%, 75.845337%)" offset="0.414062"/><stop stop-opacity="1" stop-color="rgb(57.579041%, 59.138489%, 75.587463%)" offset="0.417969"/><stop stop-opacity="1" stop-color="rgb(57.232666%, 58.792114%, 75.328064%)" offset="0.421875"/><stop stop-opacity="1" stop-color="rgb(56.884766%, 58.444214%, 75.07019%)" offset="0.425781"/><stop stop-opacity="1" stop-color="rgb(56.536865%, 58.097839%, 74.810791%)" offset="0.429688"/><stop stop-opacity="1" stop-color="rgb(56.190491%, 57.749939%, 74.552917%)" offset="0.433594"/><stop stop-opacity="1" stop-color="rgb(55.84259%, 57.403564%, 74.293518%)" offset="0.4375"/><stop stop-opacity="1" stop-color="rgb(55.496216%, 57.055664%, 74.035645%)" offset="0.441406"/><stop stop-opacity="1" stop-color="rgb(55.148315%, 56.70929%, 73.776245%)" offset="0.445312"/><stop stop-opacity="1" stop-color="rgb(54.801941%, 56.361389%, 73.518372%)" offset="0.449219"/><stop stop-opacity="1" stop-color="rgb(54.454041%, 56.013489%, 73.258972%)" offset="0.453125"/><stop stop-opacity="1" stop-color="rgb(54.107666%, 55.667114%, 73.001099%)" offset="0.457031"/><stop stop-opacity="1" stop-color="rgb(53.759766%, 55.319214%, 72.741699%)" offset="0.460938"/><stop stop-opacity="1" stop-color="rgb(53.411865%, 54.972839%, 72.483826%)" offset="0.464844"/><stop stop-opacity="1" stop-color="rgb(53.065491%, 54.624939%, 72.224426%)" offset="0.46875"/><stop stop-opacity="1" stop-color="rgb(52.71759%, 54.278564%, 71.966553%)" offset="0.472656"/><stop stop-opacity="1" stop-color="rgb(52.371216%, 53.930664%, 71.707153%)" offset="0.476562"/><stop stop-opacity="1" stop-color="rgb(52.023315%, 53.58429%, 71.447754%)" offset="0.480469"/><stop stop-opacity="1" stop-color="rgb(51.676941%, 53.236389%, 71.18988%)" offset="0.484375"/><stop stop-opacity="1" stop-color="rgb(51.329041%, 52.888489%, 70.930481%)" offset="0.488281"/><stop stop-opacity="1" stop-color="rgb(50.982666%, 52.542114%, 70.672607%)" offset="0.492188"/><stop stop-opacity="1" stop-color="rgb(50.634766%, 52.194214%, 70.413208%)" offset="0.496094"/><stop stop-opacity="1" stop-color="rgb(50.286865%, 51.847839%, 70.155334%)" offset="0.5"/><stop stop-opacity="1" stop-color="rgb(49.940491%, 51.499939%, 69.895935%)" offset="0.503906"/><stop stop-opacity="1" stop-color="rgb(49.59259%, 51.153564%, 69.638062%)" offset="0.507812"/><stop stop-opacity="1" stop-color="rgb(49.246216%, 50.805664%, 69.378662%)" offset="0.511719"/><stop stop-opacity="1" stop-color="rgb(48.898315%, 50.45929%, 69.120789%)" offset="0.515625"/><stop stop-opacity="1" stop-color="rgb(48.551941%, 50.111389%, 68.861389%)" offset="0.519531"/><stop stop-opacity="1" stop-color="rgb(48.204041%, 49.763489%, 68.603516%)" offset="0.523438"/><stop stop-opacity="1" stop-color="rgb(47.857666%, 49.417114%, 68.344116%)" offset="0.527344"/><stop stop-opacity="1" stop-color="rgb(47.509766%, 49.069214%, 68.086243%)" offset="0.53125"/><stop stop-opacity="1" stop-color="rgb(47.161865%, 48.722839%, 67.826843%)" offset="0.535156"/><stop stop-opacity="1" stop-color="rgb(46.815491%, 48.374939%, 67.56897%)" offset="0.539062"/><stop stop-opacity="1" stop-color="rgb(46.46759%, 48.028564%, 67.30957%)" offset="0.542969"/><stop stop-opacity="1" stop-color="rgb(46.121216%, 47.680664%, 67.050171%)" offset="0.546875"/><stop stop-opacity="1" stop-color="rgb(45.773315%, 47.33429%, 66.792297%)" offset="0.550781"/><stop stop-opacity="1" stop-color="rgb(45.426941%, 46.986389%, 66.532898%)" offset="0.554688"/><stop stop-opacity="1" stop-color="rgb(45.079041%, 46.638489%, 66.275024%)" offset="0.558594"/><stop stop-opacity="1" stop-color="rgb(44.732666%, 46.292114%, 66.015625%)" offset="0.5625"/><stop stop-opacity="1" stop-color="rgb(44.384766%, 45.944214%, 65.757751%)" offset="0.566406"/><stop stop-opacity="1" stop-color="rgb(44.036865%, 45.597839%, 65.498352%)" offset="0.570312"/><stop stop-opacity="1" stop-color="rgb(43.690491%, 45.249939%, 65.240479%)" offset="0.574219"/><stop stop-opacity="1" stop-color="rgb(43.34259%, 44.903564%, 64.981079%)" offset="0.578125"/><stop stop-opacity="1" stop-color="rgb(42.996216%, 44.555664%, 64.723206%)" offset="0.582031"/><stop stop-opacity="1" stop-color="rgb(42.648315%, 44.20929%, 64.463806%)" offset="0.585938"/><stop stop-opacity="1" stop-color="rgb(42.301941%, 43.861389%, 64.205933%)" offset="0.589844"/><stop stop-opacity="1" stop-color="rgb(41.954041%, 43.513489%, 63.946533%)" offset="0.59375"/><stop stop-opacity="1" stop-color="rgb(41.607666%, 43.167114%, 63.68866%)" offset="0.597656"/><stop stop-opacity="1" stop-color="rgb(41.259766%, 42.819214%, 63.42926%)" offset="0.601562"/><stop stop-opacity="1" stop-color="rgb(40.911865%, 42.472839%, 63.171387%)" offset="0.605469"/><stop stop-opacity="1" stop-color="rgb(40.565491%, 42.124939%, 62.911987%)" offset="0.609375"/><stop stop-opacity="1" stop-color="rgb(40.21759%, 41.778564%, 62.654114%)" offset="0.613281"/><stop stop-opacity="1" stop-color="rgb(39.871216%, 41.430664%, 62.394714%)" offset="0.617188"/><stop stop-opacity="1" stop-color="rgb(39.523315%, 41.08429%, 62.135315%)" offset="0.621094"/><stop stop-opacity="1" stop-color="rgb(39.176941%, 40.736389%, 61.877441%)" offset="0.625"/><stop stop-opacity="1" stop-color="rgb(38.829041%, 40.388489%, 61.618042%)" offset="0.628906"/><stop stop-opacity="1" stop-color="rgb(38.482666%, 40.042114%, 61.360168%)" offset="0.632812"/><stop stop-opacity="1" stop-color="rgb(38.134766%, 39.694214%, 61.100769%)" offset="0.636719"/><stop stop-opacity="1" stop-color="rgb(37.786865%, 39.347839%, 60.842896%)" offset="0.640625"/><stop stop-opacity="1" stop-color="rgb(37.440491%, 38.999939%, 60.583496%)" offset="0.644531"/><stop stop-opacity="1" stop-color="rgb(37.09259%, 38.653564%, 60.325623%)" offset="0.648438"/><stop stop-opacity="1" stop-color="rgb(36.746216%, 38.305664%, 60.066223%)" offset="0.652344"/><stop stop-opacity="1" stop-color="rgb(36.398315%, 37.95929%, 59.80835%)" offset="0.65625"/><stop stop-opacity="1" stop-color="rgb(36.051941%, 37.611389%, 59.54895%)" offset="0.660156"/><stop stop-opacity="1" stop-color="rgb(35.704041%, 37.263489%, 59.291077%)" offset="0.664062"/><stop stop-opacity="1" stop-color="rgb(35.357666%, 36.917114%, 59.031677%)" offset="0.667969"/><stop stop-opacity="1" stop-color="rgb(35.009766%, 36.569214%, 58.773804%)" offset="0.671875"/><stop stop-opacity="1" stop-color="rgb(34.661865%, 36.222839%, 58.514404%)" offset="0.675781"/><stop stop-opacity="1" stop-color="rgb(34.315491%, 35.874939%, 58.256531%)" offset="0.679688"/><stop stop-opacity="1" stop-color="rgb(33.96759%, 35.528564%, 57.997131%)" offset="0.683594"/><stop stop-opacity="1" stop-color="rgb(33.621216%, 35.180664%, 57.737732%)" offset="0.6875"/><stop stop-opacity="1" stop-color="rgb(33.273315%, 34.83429%, 57.479858%)" offset="0.691406"/><stop stop-opacity="1" stop-color="rgb(32.926941%, 34.486389%, 57.220459%)" offset="0.695312"/><stop stop-opacity="1" stop-color="rgb(32.579041%, 34.138489%, 56.962585%)" offset="0.699219"/><stop stop-opacity="1" stop-color="rgb(32.232666%, 33.792114%, 56.703186%)" offset="0.703125"/><stop stop-opacity="1" stop-color="rgb(31.884766%, 33.444214%, 56.445312%)" offset="0.707031"/><stop stop-opacity="1" stop-color="rgb(31.536865%, 33.097839%, 56.185913%)" offset="0.710938"/><stop stop-opacity="1" stop-color="rgb(31.190491%, 32.749939%, 55.92804%)" offset="0.714844"/><stop stop-opacity="1" stop-color="rgb(30.84259%, 32.403564%, 55.66864%)" offset="0.71875"/><stop stop-opacity="1" stop-color="rgb(30.496216%, 32.055664%, 55.410767%)" offset="0.722656"/><stop stop-opacity="1" stop-color="rgb(30.148315%, 31.70929%, 55.151367%)" offset="0.726562"/><stop stop-opacity="1" stop-color="rgb(29.801941%, 31.361389%, 54.893494%)" offset="0.730469"/><stop stop-opacity="1" stop-color="rgb(29.454041%, 31.013489%, 54.634094%)" offset="0.734375"/><stop stop-opacity="1" stop-color="rgb(29.107666%, 30.667114%, 54.376221%)" offset="0.738281"/><stop stop-opacity="1" stop-color="rgb(28.759766%, 30.319214%, 54.116821%)" offset="0.742188"/><stop stop-opacity="1" stop-color="rgb(28.411865%, 29.972839%, 53.858948%)" offset="0.746094"/><stop stop-opacity="1" stop-color="rgb(28.239441%, 29.798889%, 53.729248%)" offset="1"/></radialGradient></defs><g clip-path="url(#974838b338)"><g clip-path="url(#1bc231db96)"><g clip-path="url(#6c246ac982)"><path fill="url(#e3ebd04ae6)" d="M 16.546875 54.773438 L 16.546875 137.183594 L 175.46875 137.183594 L 175.46875 54.773438 Z M 16.546875 54.773438 " fill-rule="nonzero"/></g></g></g><path fill="#777bb3" d="M 96.007812 134.1875 C 138.179688 134.1875 172.367188 117.09375 172.367188 96.011719 C 172.367188 74.925781 138.179688 57.835938 96.007812 57.835938 C 53.839844 57.835938 19.652344 74.925781 19.652344 96.011719 C 19.652344 117.09375 53.839844 134.1875 96.007812 134.1875 " fill-opacity="1" fill-rule="nonzero"/><path fill="#000000" d="M 59.71875 100.742188 C 63.1875 100.742188 65.773438 100.113281 67.414062 98.867188 C 69.03125 97.636719 70.152344 95.503906 70.738281 92.53125 C 71.285156 89.75 71.078125 87.808594 70.121094 86.761719 C 69.140625 85.691406 67.023438 85.148438 63.828125 85.148438 L 58.285156 85.148438 L 55.214844 100.742188 Z M 41.59375 119.953125 C 41.335938 119.953125 41.09375 119.839844 40.929688 119.644531 C 40.757812 119.4375 40.695312 119.203125 40.75 118.941406 L 48.890625 77.613281 C 48.929688 77.414062 49.027344 77.25 49.1875 77.121094 C 49.347656 76.992188 49.53125 76.925781 49.738281 76.925781 L 67.285156 76.925781 C 72.796875 76.925781 76.902344 78.402344 79.484375 81.316406 C 82.078125 84.246094 82.878906 88.339844 81.863281 93.488281 C 81.449219 95.582031 80.742188 97.53125 79.753906 99.273438 C 78.765625 101.019531 77.460938 102.632812 75.871094 104.074219 C 73.96875 105.832031 71.816406 107.105469 69.480469 107.851562 C 67.179688 108.59375 64.226562 108.96875 60.703125 108.96875 L 53.597656 108.96875 L 51.566406 119.265625 C 51.527344 119.464844 51.429688 119.628906 51.269531 119.761719 C 51.109375 119.890625 50.925781 119.953125 50.722656 119.953125 Z M 41.59375 119.953125 " fill-opacity="1" fill-rule="nonzero"/><path fill="#ffffff" d="M 58.996094 86 L 63.828125 86 C 67.683594 86 69.023438 86.832031 69.480469 87.332031 C 70.234375 88.15625 70.378906 89.898438 69.890625 92.367188 C 69.347656 95.132812 68.335938 97.09375 66.886719 98.195312 C 65.402344 99.320312 62.992188 99.890625 59.71875 99.890625 L 56.261719 99.890625 L 59 86 Z M 67.28125 76.074219 L 49.738281 76.074219 C 49.324219 76.074219 48.957031 76.203125 48.640625 76.464844 C 48.320312 76.722656 48.125 77.050781 48.042969 77.453125 L 39.902344 118.78125 C 39.855469 119.03125 39.863281 119.277344 39.925781 119.523438 C 39.988281 119.769531 40.101562 119.992188 40.265625 120.1875 C 40.429688 120.382812 40.628906 120.535156 40.859375 120.644531 C 41.09375 120.75 41.339844 120.804688 41.597656 120.804688 L 50.722656 120.804688 C 51.132812 120.804688 51.5 120.675781 51.816406 120.417969 C 52.136719 120.160156 52.335938 119.828125 52.414062 119.429688 L 54.308594 109.820312 L 60.703125 109.820312 C 64.316406 109.820312 67.363281 109.429688 69.75 108.664062 C 72.203125 107.875 74.460938 106.542969 76.460938 104.699219 C 78.113281 103.195312 79.480469 101.511719 80.507812 99.691406 C 81.535156 97.871094 82.28125 95.835938 82.710938 93.652344 C 83.777344 88.234375 82.910156 83.898438 80.132812 80.757812 C 77.382812 77.652344 73.058594 76.078125 67.285156 76.078125 M 54.171875 101.597656 L 59.71875 101.597656 C 63.398438 101.597656 66.140625 100.914062 67.941406 99.542969 C 69.742188 98.175781 70.957031 95.894531 71.585938 92.695312 C 72.191406 89.625 71.914062 87.457031 70.761719 86.195312 C 69.609375 84.929688 67.296875 84.300781 63.828125 84.300781 L 57.578125 84.300781 L 54.171875 101.597656 M 67.285156 77.777344 C 72.5625 77.777344 76.414062 79.144531 78.835938 81.878906 C 81.257812 84.613281 81.984375 88.425781 81.019531 93.328125 C 80.621094 95.34375 79.949219 97.1875 79.003906 98.859375 C 78.054688 100.53125 76.816406 102.0625 75.289062 103.449219 C 73.464844 105.132812 71.441406 106.332031 69.214844 107.046875 C 66.988281 107.761719 64.152344 108.117188 60.703125 108.117188 L 52.886719 108.117188 L 50.722656 119.105469 L 41.597656 119.105469 L 49.738281 77.78125 L 67.285156 77.78125 " fill-opacity="1" fill-rule="nonzero"/><path fill="#000000" d="M 102.785156 108.964844 C 102.527344 108.964844 102.285156 108.851562 102.121094 108.65625 C 101.957031 108.460938 101.890625 108.203125 101.941406 107.953125 L 105.539062 89.667969 C 105.882812 87.929688 105.796875 86.679688 105.304688 86.152344 C 105 85.832031 104.089844 85.289062 101.390625 85.289062 L 94.867188 85.289062 L 90.339844 108.277344 C 90.300781 108.476562 90.199219 108.640625 90.042969 108.769531 C 89.882812 108.902344 89.699219 108.964844 89.492188 108.964844 L 80.441406 108.964844 C 80.3125 108.964844 80.1875 108.9375 80.074219 108.882812 C 79.957031 108.828125 79.855469 108.753906 79.773438 108.65625 C 79.691406 108.558594 79.636719 108.449219 79.605469 108.324219 C 79.574219 108.199219 79.570312 108.078125 79.59375 107.953125 L 87.734375 66.625 C 87.773438 66.425781 87.875 66.261719 88.035156 66.132812 C 88.191406 66.003906 88.375 65.9375 88.582031 65.9375 L 97.636719 65.9375 C 97.761719 65.9375 97.886719 65.964844 98.003906 66.019531 C 98.117188 66.074219 98.21875 66.148438 98.300781 66.246094 C 98.382812 66.34375 98.4375 66.457031 98.46875 66.578125 C 98.503906 66.703125 98.503906 66.824219 98.480469 66.949219 L 96.515625 76.925781 L 103.535156 76.925781 C 108.882812 76.925781 112.507812 77.855469 114.621094 79.769531 C 116.777344 81.71875 117.445312 84.839844 116.617188 89.046875 L 112.828125 108.277344 C 112.789062 108.476562 112.691406 108.640625 112.53125 108.773438 C 112.371094 108.902344 112.1875 108.964844 111.984375 108.964844 Z M 102.785156 108.964844 " fill-opacity="1" fill-rule="nonzero"/><path fill="#ffffff" d="M 97.636719 65.085938 L 88.582031 65.085938 C 88.167969 65.085938 87.804688 65.214844 87.484375 65.476562 C 87.167969 65.734375 86.96875 66.0625 86.890625 66.464844 L 78.746094 107.789062 C 78.699219 108.039062 78.707031 108.289062 78.769531 108.535156 C 78.832031 108.78125 78.945312 109 79.109375 109.195312 C 79.273438 109.394531 79.472656 109.546875 79.707031 109.652344 C 79.9375 109.761719 80.183594 109.816406 80.441406 109.816406 L 89.492188 109.816406 C 89.90625 109.816406 90.273438 109.6875 90.589844 109.425781 C 90.910156 109.167969 91.109375 108.839844 91.1875 108.4375 L 95.578125 86.140625 L 101.394531 86.140625 C 104.085938 86.140625 104.648438 86.707031 104.671875 86.730469 C 104.835938 86.90625 105.050781 87.707031 104.695312 89.503906 L 101.09375 107.789062 C 101.046875 108.039062 101.050781 108.289062 101.117188 108.535156 C 101.179688 108.78125 101.292969 109 101.457031 109.195312 C 101.621094 109.394531 101.820312 109.546875 102.050781 109.652344 C 102.285156 109.761719 102.53125 109.816406 102.785156 109.816406 L 111.984375 109.816406 C 112.394531 109.816406 112.761719 109.6875 113.082031 109.425781 C 113.398438 109.167969 113.597656 108.839844 113.675781 108.4375 L 117.464844 89.207031 C 118.351562 84.695312 117.59375 81.308594 115.207031 79.140625 C 112.925781 77.078125 109.109375 76.074219 103.535156 76.074219 L 97.5625 76.074219 L 99.328125 67.113281 C 99.378906 66.863281 99.371094 66.617188 99.308594 66.371094 C 99.246094 66.125 99.128906 65.902344 98.96875 65.707031 C 98.804688 65.511719 98.605469 65.359375 98.371094 65.25 C 98.140625 65.140625 97.894531 65.085938 97.636719 65.085938 M 97.636719 66.789062 L 95.472656 77.777344 L 103.539062 77.777344 C 108.613281 77.777344 112.113281 78.648438 114.039062 80.394531 C 115.964844 82.140625 116.542969 84.972656 115.773438 88.882812 L 111.984375 108.113281 L 102.789062 108.113281 L 106.390625 89.828125 C 106.796875 87.75 106.648438 86.332031 105.9375 85.574219 C 105.226562 84.816406 103.710938 84.4375 101.394531 84.4375 L 94.15625 84.4375 L 89.492188 108.113281 L 80.441406 108.113281 L 88.582031 66.789062 L 97.636719 66.789062 " fill-opacity="1" fill-rule="nonzero"/><path fill="#000000" d="M 130.941406 100.742188 C 134.410156 100.742188 137 100.113281 138.636719 98.867188 C 140.257812 97.636719 141.375 95.503906 141.960938 92.53125 C 142.507812 89.75 142.300781 87.808594 141.34375 86.761719 C 140.363281 85.691406 138.246094 85.148438 135.050781 85.148438 L 129.511719 85.148438 L 126.4375 100.742188 Z M 112.816406 119.953125 C 112.5625 119.953125 112.316406 119.839844 112.152344 119.644531 C 111.980469 119.4375 111.921875 119.203125 111.972656 118.941406 L 120.113281 77.613281 C 120.152344 77.414062 120.253906 77.25 120.410156 77.121094 C 120.570312 76.988281 120.753906 76.925781 120.960938 76.925781 L 138.507812 76.925781 C 144.023438 76.925781 148.125 78.398438 150.707031 81.316406 C 153.300781 84.246094 154.101562 88.339844 153.085938 93.488281 C 152.671875 95.582031 151.964844 97.53125 150.976562 99.273438 C 149.988281 101.019531 148.683594 102.632812 147.09375 104.074219 C 145.191406 105.828125 143.039062 107.101562 140.703125 107.851562 C 138.402344 108.589844 135.449219 108.964844 131.925781 108.964844 L 124.8125 108.964844 L 122.785156 119.265625 C 122.746094 119.464844 122.648438 119.628906 122.488281 119.757812 C 122.328125 119.890625 122.144531 119.953125 121.9375 119.953125 L 112.8125 119.953125 Z M 112.816406 119.953125 " fill-opacity="1" fill-rule="nonzero"/><path fill="#ffffff" d="M 130.222656 86 L 135.050781 86 C 138.910156 86 140.25 86.832031 140.703125 87.332031 C 141.460938 88.15625 141.601562 89.898438 141.117188 92.367188 C 140.570312 95.132812 139.558594 97.09375 138.109375 98.195312 C 136.628906 99.320312 134.214844 99.890625 130.941406 99.890625 L 127.484375 99.890625 Z M 138.507812 76.074219 L 120.960938 76.074219 C 120.546875 76.074219 120.179688 76.203125 119.863281 76.464844 C 119.542969 76.722656 119.347656 77.050781 119.265625 77.453125 L 111.125 118.78125 C 111.074219 119.03125 111.082031 119.277344 111.148438 119.523438 C 111.210938 119.769531 111.324219 119.992188 111.488281 120.1875 C 111.652344 120.382812 111.847656 120.535156 112.082031 120.644531 C 112.316406 120.75 112.558594 120.804688 112.816406 120.804688 L 121.941406 120.804688 C 122.355469 120.804688 122.722656 120.675781 123.039062 120.417969 C 123.359375 120.160156 123.558594 119.828125 123.636719 119.429688 L 125.527344 109.820312 L 131.921875 109.820312 C 135.539062 109.820312 138.582031 109.429688 140.972656 108.664062 C 143.425781 107.875 145.683594 106.542969 147.683594 104.695312 C 149.335938 103.195312 150.699219 101.511719 151.730469 99.691406 C 152.761719 97.871094 153.503906 95.835938 153.933594 93.652344 C 155 88.234375 154.132812 83.894531 151.355469 80.757812 C 148.605469 77.652344 144.28125 76.078125 138.507812 76.078125 M 125.390625 101.597656 L 130.941406 101.597656 C 134.621094 101.597656 137.363281 100.914062 139.160156 99.542969 C 140.960938 98.175781 142.175781 95.894531 142.808594 92.695312 C 143.414062 89.625 143.136719 87.457031 141.984375 86.195312 C 140.828125 84.929688 138.515625 84.300781 135.050781 84.300781 L 128.800781 84.300781 L 125.390625 101.597656 M 138.507812 77.777344 C 143.785156 77.777344 147.636719 79.144531 150.058594 81.878906 C 152.476562 84.613281 153.207031 88.425781 152.242188 93.328125 C 151.84375 95.34375 151.171875 97.1875 150.222656 98.859375 C 149.277344 100.53125 148.039062 102.0625 146.511719 103.449219 C 144.6875 105.132812 142.664062 106.332031 140.4375 107.046875 C 138.210938 107.761719 135.371094 108.117188 131.925781 108.117188 L 124.109375 108.117188 L 121.945312 119.105469 L 112.820312 119.105469 L 120.960938 77.777344 L 138.507812 77.777344 " fill-opacity="1" fill-rule="nonzero"/></svg>